<svg aria-hidden="true" style="position: absolute; width: 0; height: 0; overflow: hidden;" version="1.1" xmlns="http://www.w3.org/2000/svg" xmlns:xlink="http://www.w3.org/1999/xlink">
<defs>
<symbol id="icon-envelope" viewBox="0 0 64 32">
<path fill="#757575" style="fill: var(--color1, #757575)" d="M3.093 0h-2.773c-0.176 0-0.32 0.144-0.32 0.32v1.92c0 0.176 0.144 0.32 0.32 0.32h2.773c0.176 0 0.32-0.144 0.32-0.32v-1.92c0-0.176-0.144-0.32-0.32-0.32zM3.093 0.213c0.014 0 0.028 0.003 0.041 0.008l-1.428 1.237-1.428-1.237c0.012-0.005 0.026-0.008 0.041-0.008v0h2.773zM3.093 2.347h-2.773c-0.059 0-0.107-0.048-0.107-0.107v0-1.793l1.423 1.234c0.019 0.016 0.043 0.026 0.070 0.026s0.051-0.010 0.070-0.026l-0 0 1.423-1.234v1.793c0 0.059-0.048 0.107-0.107 0.107v0z"></path>
</symbol>
<symbol id="icon-smartphone" viewBox="0 0 64 32">
<path fill="#757575" style="fill: var(--color1, #757575)" d="M1.813 0h-1.493c-0.176 0-0.32 0.144-0.32 0.32v2.773c0 0.176 0.144 0.32 0.32 0.32h1.493c0.176 0 0.32-0.144 0.32-0.32v-2.773c0-0.176-0.144-0.32-0.32-0.32zM0.32 0.213h1.493c0.059 0 0.107 0.048 0.107 0.107v0 2.24h-1.707v-2.24c0-0.059 0.048-0.107 0.107-0.107v0zM1.813 3.2h-1.493c-0.059 0-0.107-0.048-0.107-0.107v0-0.32h1.707v0.32c0 0.059-0.048 0.107-0.107 0.107v0z"></path>
<path fill="#757575" style="fill: var(--color1, #757575)" d="M0.502 2.931c0.019 0.017 0.031 0.042 0.031 0.070s-0.012 0.053-0.031 0.070l-0 0c-0.020 0.018-0.046 0.029-0.076 0.029s-0.056-0.011-0.076-0.029l0 0c-0.019-0.017-0.031-0.042-0.031-0.070s0.012-0.053 0.031-0.070l0-0c0.020-0.018 0.046-0.029 0.076-0.029s0.056 0.011 0.076 0.029l-0-0z"></path>
</symbol>
</defs>
</svg>
